<svg width="32" height="32" viewBox="0 0 32 32" fill="none" xmlns="http://www.w3.org/2000/svg">
<rect x="2.5" y="22.5" width="27" height="2" stroke="currentColor" stroke-linejoin="round"/>
<rect x="1.5" y="24.5" width="29" height="2" stroke="currentColor" stroke-linejoin="round"/>
<rect x="3.5" y="20.5" width="25" height="2" stroke="currentColor" stroke-linejoin="round"/>
<rect x="6.5" y="4.5" width="19" height="5" stroke="currentColor" stroke-linejoin="round"/>
<rect x="3.5" y="5.5" width="3" height="15" stroke="currentColor" stroke-linejoin="round"/>
<path d="M28 5.5C28.2761 5.5 28.5 5.72386 28.5 6V20C28.5 20.2761 28.2761 20.5 28 20.5H26C25.7239 20.5 25.5 20.2761 25.5 20V6C25.5 5.72386 25.7239 5.5 26 5.5H28Z" stroke="currentColor" stroke-linejoin="round"/>
<path d="M9 9V20" stroke="currentColor"/>
<path d="M11 9V20" stroke="currentColor"/>
<path d="M13 9V20" stroke="currentColor"/>
<path d="M15 9V20" stroke="currentColor"/>
<path d="M17 9V20" stroke="currentColor"/>
<path d="M19 9V20" stroke="currentColor"/>
<path d="M21 9V20" stroke="currentColor"/>
<path d="M23 9V20" stroke="currentColor"/>
<circle cx="8" cy="7" r="0.5" fill="currentColor"/>
<circle cx="10" cy="7" r="0.5" fill="currentColor"/>
<circle cx="12" cy="7" r="0.5" fill="currentColor"/>
<circle cx="14" cy="7" r="0.5" fill="currentColor"/>
<circle cx="16" cy="7" r="0.5" fill="currentColor"/>
<circle cx="18" cy="7" r="0.5" fill="currentColor"/>
<circle cx="20" cy="7" r="0.5" fill="currentColor"/>
<circle cx="22" cy="7" r="0.5" fill="currentColor"/>
<circle cx="24" cy="7" r="0.5" fill="currentColor"/>
<style>
    svg { color: #000; }
    @media (prefers-color-scheme: dark) {
        svg { color: #FFF; }
    }
</style>
</svg>
