<svg xmlns="http://www.w3.org/2000/svg" viewBox="-5.0 -10.0 110.0 115.0">
<path d="m26.699 91.805-2.75-4.7656c-0.019531-0.027343-0.039063-0.058593-0.054688-0.089843-0.019531-0.03125-0.035156-0.0625-0.050781-0.09375l-9.5898-16.609c-0.019531-0.027344-0.039062-0.058594-0.054687-0.089844-0.019531-0.03125-0.035157-0.0625-0.050781-0.097656l-2.75-4.7656-7.1641 4.1367 15.305 26.512zm10.094-68.117c-0.94922 0-1.7148-0.76953-1.7148-1.7148 0-0.94922 0.76953-1.7148 1.7148-1.7148h18.25c0.94922 0 1.7148 0.76953 1.7148 1.7148 0 0.94922-0.76953 1.7148-1.7148 1.7148zm0 7.8008c-0.94922 0-1.7148-0.76953-1.7148-1.7148 0-0.94922 0.76953-1.7148 1.7148-1.7148h35.707c0.94922 0 1.7148 0.76953 1.7148 1.7148 0 0.94922-0.76953 1.7148-1.7148 1.7148zm0 15.609c-0.94922 0-1.7148-0.76953-1.7148-1.7148 0-0.94922 0.76953-1.7148 1.7148-1.7148h26.594c0.94922 0 1.7148 0.76953 1.7148 1.7148 0 0.94922-0.76953 1.7148-1.7148 1.7148zm0-7.8047c-0.94922 0-1.7148-0.76953-1.7148-1.7148 0-0.94922 0.76953-1.7148 1.7148-1.7148h31.148c0.94922 0 1.7148 0.76953 1.7148 1.7148 0 0.94922-0.76953 1.7148-1.7148 1.7148zm45.504-21.609c0.31641 0.3125 0.51172 0.74609 0.51172 1.2227v10.711c1.5039-0.66797 3.1641-1.0391 4.9141-1.0391 3.3438 0 6.3672 1.3555 8.5586 3.543 2.1914 2.1914 3.543 5.2148 3.543 8.5547 0 3.3438-1.3555 6.3672-3.543 8.5586-2.1914 2.1914-5.2148 3.543-8.5586 3.543-1.75 0-3.4141-0.37109-4.9141-1.0391v3.75c1.6992-0.96094 3.6367-1.1523 5.3906-0.68359 1.7734 0.47656 3.3711 1.625 4.3594 3.3359 0.98828 1.7148 1.1875 3.6719 0.71484 5.4453-0.46484 1.7344-1.5781 3.2969-3.2344 4.293-0.035156 0.023438-0.070312 0.042969-0.10547 0.066406l-32.48 18.75c-0.39062 0.25-0.88281 0.33984-1.3672 0.21094l-19.605-5.2539-8.7734 5.0664 2.7539 4.7656c0.019531 0.027344 0.039062 0.058594 0.054687 0.089844 0.47266 0.82031 0.19531 1.8672-0.625 2.3398-3.375 1.9492-6.7734 3.8789-10.133 5.8477-0.82031 0.46875-1.8633 0.1875-2.332-0.62891l-16.961-29.383c-0.019532-0.027344-0.039063-0.058594-0.054688-0.089844-0.47266-0.82031-0.19531-1.8672 0.625-2.3398 3.3633-1.9414 6.8086-3.8594 10.133-5.8438 0.82031-0.46875 1.8633-0.1875 2.332 0.62891l2.8008 4.8555 3.6992-2.1367v-52c0-1.3984 0.57031-2.668 1.4883-3.5859s2.1875-1.4883 3.5859-1.4883h3.6914l-0.003906-2.668c0-1.3984 0.57031-2.668 1.4883-3.5859 0.91797-0.91797 2.1875-1.4883 3.5859-1.4883h30.074c0.25781 0 0.50391 0.058594 0.72266 0.16016 0.13281 0.0625 0.25 0.13672 0.36328 0.22656 0.046875 0.039063 0.09375 0.082031 0.13672 0.125zm-2.9219 14.234v-11.297l-15.465 0.003906c-0.94922 0-1.7148-0.76953-1.7148-1.7148v-15.469h-28.359c-0.44922 0-0.85938 0.18359-1.1562 0.48438-0.29688 0.29688-0.48438 0.70703-0.48438 1.1562v52.703l9.1719-5.2969c0.39062-0.25 0.88281-0.33984 1.3672-0.21094l19.129 5.125c3.1992 0.85547 5.3945 3.832 5.3164 7.1133l12.191-7.0391v-8.0352c-0.070313-0.066406-0.14062-0.13672-0.20703-0.20312-2.1914-2.1914-3.543-5.2148-3.543-8.5586 0-3.3398 1.3555-6.3672 3.543-8.5547 0.070313-0.070312 0.14063-0.14062 0.21094-0.20703zm-47.938 30.258 11.094-6.4062 18.445 4.9414c1.9648 0.52734 3.1562 2.543 2.668 4.5156-0.015625 0.046876-0.027343 0.097657-0.039062 0.14844-0.26562 0.91797-0.85938 1.6602-1.625 2.1367l-0.21875 0.125c-0.78906 0.42188-1.7266 0.5625-2.6562 0.33594-0.054688-0.015625-0.10938-0.03125-0.16406-0.042968l-12.5-3.3477c-0.91406-0.24609-1.8555 0.30078-2.0977 1.2148-0.24609 0.91406 0.30078 1.8555 1.2148 2.0977l12.59 3.375c1.9062 0.50781 3.8477 0.19531 5.4414-0.72656 0.10156-0.058594 0.20312-0.12109 0.30469-0.1875l17.906-10.34c0.097657-0.046875 0.19141-0.10156 0.28125-0.16016l2.2891-1.3203c0.03125-0.015625 0.0625-0.03125 0.09375-0.050781 0.89062-0.51172 1.9102-0.61328 2.8438-0.36328 0.92969 0.25 1.7656 0.85156 2.2812 1.7422 0.51172 0.88672 0.61328 1.9102 0.36328 2.8438-0.24219 0.90625-0.81641 1.7227-1.6602 2.2344-0.027344 0.015625-0.054688 0.027344-0.082031 0.042969l-31.918 18.43-19.605-5.2539c-0.48438-0.12891-0.97266-0.039062-1.3633 0.21094l-9.3242 5.3828-7.9844-13.828 4.4531-2.5703c0.074219-0.035157 0.14453-0.074219 0.21094-0.12109l8.5547-4.9375c0.066406-0.035156 0.13672-0.074219 0.20312-0.12109zm-2.6758-2.4102v-48.582h-3.6914c-0.44922 0-0.85937 0.18359-1.1562 0.48438-0.29687 0.29688-0.48437 0.70703-0.48437 1.1562v50.02zm36.867-42.574h11.32l-11.32-11.32zm16.535 24.828 2.8086 2.8086c0.66797 0.67188 1.7578 0.67188 2.4258 0l5.875-5.875c0.66797-0.66797 0.66797-1.7578 0-2.4258-0.66797-0.66797-1.7578-0.66797-2.4297 0l-4.6641 4.6641-1.5938-1.5938c-0.66797-0.66797-1.7578-0.66797-2.4258 0-0.66406 0.66797-0.66406 1.7539 0.003906 2.4219zm11.688-7.4688c-1.5703-1.5703-3.7344-2.5391-6.1289-2.5391-2.1055 0-4.0352 0.75-5.5352 1.9961l-0.003906 0.003907c-0.20312 0.16797-0.40234 0.35156-0.58984 0.53906-1.5703 1.5703-2.5391 3.7344-2.5391 6.1289 0 2.3945 0.97266 4.5586 2.5391 6.1289 1.5703 1.5703 3.7344 2.5391 6.1289 2.5391 2.3945 0 4.5586-0.96875 6.1289-2.5391 1.5703-1.5703 2.5391-3.7344 2.5391-6.1289 0-2.3945-0.97266-4.5625-2.5391-6.1289zm-57.059-18.668h18.25c0.94922 0 1.7148-0.76953 1.7148-1.7148 0-0.94922-0.76953-1.7148-1.7148-1.7148l-18.25-0.003906c-0.94922 0-1.7148 0.76953-1.7148 1.7148 0 0.94922 0.76953 1.7188 1.7148 1.7188zm-15.906 70.715c0.46875 0.82031 0.1875 1.8633-0.62891 2.332-0.82031 0.47266-1.8633 0.1875-2.332-0.62891l-7.8867-13.66c-0.47266-0.82031-0.1875-1.8633 0.62891-2.332 0.82031-0.47266 1.8633-0.1875 2.332 0.62891z" fill-rule="evenodd" stroke="currentColor" />
<style>
    svg { color: #000; }
    @media (prefers-color-scheme: dark) {
        svg { color: #FFF; }
    }
</style>
</svg>